# xmcd
#
# Track frame offsets:
#	150
#	15975
#	34517
#	54357
#	73562
#	87835
#	108057
#	129570
#	146367
#	166317
#
# Disc length: 2456 seconds
#
# Revision: 0
# Processed by: cddbd v1.4PL0 Copyright (c) Steve Scherf et al.
# Submitted via: audiograbber 1.81.03
#
DISCID=7009960a
DTITLE=Carl Sims - Brick House
DYEAR=2003
DGENRE=Blues
TTITLE0=Brick House
TTITLE1=When Something Is Wrong With My Baby
TTITLE2=I Never Had A Lover Like You
TTITLE3=Where Can I Run To
TTITLE4=Our Love Song
TTITLE5=Don't Make Me Cry
TTITLE6=Burning Candles On Both Ends
TTITLE7=Beggin Baby
TTITLE8=Everything's Out In The Open
TTITLE9=House Of Love
EXTD=
EXTT0=
EXTT1=
EXTT2=
EXTT3=
EXTT4=
EXTT5=
EXTT6=
EXTT7=
EXTT8=
EXTT9=
PLAYORDER=
